<svg xmlns="http://www.w3.org/2000/svg" viewBox="0 0 1920 700" preserveAspectRatio="xMidYMid slice">
<defs>
  <linearGradient id="bg" x1="0" y1="0" x2="0" y2="1"><stop stop-color="#f5f8fb"/><stop offset="1" stop-color="#f1f5f9"/></linearGradient>
  <radialGradient id="halo" cx="82%" cy="0%" r="52%"><stop stop-color="#b78755" stop-opacity=".055"/><stop offset=".55" stop-color="#7d91a4" stop-opacity=".04"/><stop offset="1" stop-color="#f4f7fb" stop-opacity="0"/></radialGradient>
  <radialGradient id="node"><stop stop-color="#b98b59" stop-opacity=".42"/><stop offset=".25" stop-color="#9e7348" stop-opacity=".17"/><stop offset="1" stop-color="#9e7348" stop-opacity="0"/></radialGradient>
  <linearGradient id="bronze" x1="0" y1="0" x2="1" y2="0"><stop stop-color="#947657" stop-opacity=".11"/><stop offset=".5" stop-color="#9f754a" stop-opacity=".30"/><stop offset="1" stop-color="#b88c59" stop-opacity=".18"/></linearGradient>
  <pattern id="hex" width="34" height="29.45" patternUnits="userSpaceOnUse"><path d="M17 1 32 8.4v12.6L17 28.45 2 21V8.4Z" fill="none" stroke="#997552" stroke-opacity=".17" stroke-width=".8"/><circle cx="17" cy="14.7" r="4.1" fill="none" stroke="#8090a0" stroke-opacity=".11" stroke-width=".7"/></pattern>
  <pattern id="diamond" width="26" height="26" patternUnits="userSpaceOnUse" patternTransform="rotate(45)"><path d="M0 0H26V26H0Z" fill="none" stroke="#98734f" stroke-opacity=".12" stroke-width=".7"/></pattern>
  <mask id="jaliA"><rect width="1920" height="700" fill="#000"/><circle cx="1640" cy="-70" r="432" fill="#fff"/><circle cx="1640" cy="-70" r="350" fill="#000"/></mask>
  <mask id="jaliB"><rect width="1920" height="700" fill="#000"/><circle cx="1640" cy="-70" r="334" fill="#fff"/><circle cx="1640" cy="-70" r="273" fill="#000"/></mask>
  <linearGradient id="fade" x1="0" y1="0" x2="0" y2="1"><stop offset="0" stop-color="#fff"/><stop offset=".67" stop-color="#fff"/><stop offset="1" stop-color="#000"/></linearGradient>
  <mask id="fadeMask"><rect width="1920" height="700" fill="url(#fade)"/></mask>
</defs>
<rect width="1920" height="700" fill="url(#bg)"/><rect width="1920" height="700" fill="url(#halo)"/>
<g mask="url(#fadeMask)">
  <g fill="none" stroke-linecap="round">
    <path d="M-110 148C225 18 500 36 760 150s520 250 1025 70" stroke="url(#bronze)" stroke-width="1.1"/>
    <path d="M-150 238C220 90 550 108 850 210s520 175 980 68" stroke="#8190a0" stroke-opacity=".10" stroke-width=".9"/>
    <path d="M-95 325C290 145 590 145 885 245s505 150 925 70" stroke="#98734f" stroke-opacity=".13" stroke-width=".9"/>
    <path d="M135 58C420 225 690 265 950 178s525-130 855 40" stroke="#9a754f" stroke-opacity=".11" stroke-width=".85"/>
    <path d="M265 404C555 175 815 160 1040 235s420 205 800 115" stroke="#7d8d9d" stroke-opacity=".09" stroke-width=".9"/>
  </g>

  <circle cx="1640" cy="-70" r="520" fill="none" stroke="#99734d" stroke-opacity=".09" stroke-width="2"/>
  <circle cx="1640" cy="-70" r="486" fill="none" stroke="url(#bronze)" stroke-width="2"/>
  <circle cx="1640" cy="-70" r="452" fill="none" stroke="#7e8e9e" stroke-opacity=".13" stroke-width="1"/>
  <circle cx="1640" cy="-70" r="426" fill="none" stroke="#a07952" stroke-opacity=".18" stroke-width="1.2" stroke-dasharray="2 8 13 8"/>
  <circle cx="1640" cy="-70" r="392" fill="none" stroke="#8493a1" stroke-opacity=".10" stroke-width="1"/>
  <circle cx="1640" cy="-70" r="365" fill="none" stroke="#9d754d" stroke-opacity=".18" stroke-width="1.5"/>
  <circle cx="1640" cy="-70" r="338" fill="none" stroke="#866749" stroke-opacity=".15" stroke-width="3.8"/>
  <circle cx="1640" cy="-70" r="312" fill="none" stroke="#8392a0" stroke-opacity=".10" stroke-width="1"/>
  <circle cx="1640" cy="-70" r="284" fill="none" stroke="#a37a50" stroke-opacity=".19" stroke-width="1.8"/>
  <circle cx="1640" cy="-70" r="258" fill="none" stroke="#8292a1" stroke-opacity=".10" stroke-width="1"/>
  <circle cx="1640" cy="-70" r="230" fill="none" stroke="#997049" stroke-opacity=".15" stroke-width="1.3"/>
  <circle cx="1640" cy="-70" r="198" fill="none" stroke="#8393a2" stroke-opacity=".08" stroke-width="1"/>
  <circle cx="1640" cy="-70" r="166" fill="none" stroke="#98714b" stroke-opacity=".14" stroke-width="1.4"/>

  <rect width="1920" height="700" fill="url(#hex)" mask="url(#jaliA)"/><rect width="1920" height="700" fill="url(#diamond)" mask="url(#jaliB)"/>
  <g fill="none" stroke="#93704c" stroke-opacity=".065" stroke-width=".8">
    <path d="M1640-70 1860-485"/><path d="M1640-70 2010-285"/><path d="M1640-70 2110-35"/><path d="M1640-70 2000 295"/><path d="M1640-70 1700 455"/><path d="M1640-70 1385 385"/><path d="M1640-70 1205 182"/>
  </g>
  <g fill="#a17b55" opacity=".30"><circle cx="235" cy="58" r="2"/><circle cx="470" cy="108" r="2.4"/><circle cx="730" cy="155" r="2.1"/><circle cx="950" cy="130" r="2.6"/><circle cx="1160" cy="210" r="2.1"/><circle cx="1320" cy="145" r="2.3"/><circle cx="1460" cy="235" r="2.6"/><circle cx="1745" cy="250" r="2.2"/></g>
  <g opacity=".34"><circle cx="470" cy="108" r="18" fill="url(#node)"/><circle cx="950" cy="130" r="20" fill="url(#node)"/><circle cx="1460" cy="235" r="22" fill="url(#node)"/></g>
  <g fill="none"><circle cx="360" cy="-105" r="250" stroke="#8292a1" stroke-opacity=".055" stroke-width="1"/><circle cx="360" cy="-105" r="180" stroke="#9a7651" stroke-opacity=".065" stroke-width=".9"/><circle cx="360" cy="-105" r="118" stroke="#8292a1" stroke-opacity=".045" stroke-width=".8"/></g>
</g>
</svg>